<svg width="35" height="35" viewBox="0 0 35 35" fill="none" xmlns="http://www.w3.org/2000/svg">
<path d="M8.3125 13.9795V21.8955C8.3125 22.9483 7.48535 23.7891 6.43262 23.7891C5.38672 23.7891 4.375 22.9414 4.375 21.8955V13.9795C4.375 12.9473 5.38672 12.0996 6.43262 12.0996C7.46484 12.0996 8.3125 12.9473 8.3125 13.9795ZM9.05078 24.7119C9.05078 25.833 9.95312 26.7354 11.0742 26.7354H12.4346L12.4551 30.9121C12.4551 33.4346 16.2285 33.4141 16.2285 30.9121V26.7354H18.7715V30.9121C18.7715 33.4209 22.5654 33.4278 22.5654 30.9121V26.7354H23.9463C25.0537 26.7354 25.9561 25.833 25.9561 24.7119V12.4483H9.05078V24.7119ZM26.0039 11.7852H8.97559C8.97559 8.85939 10.7256 6.31642 13.3232 4.99025L12.0176 2.57717C11.8262 2.24221 12.3115 2.03029 12.4756 2.3174L13.8018 4.75099C16.1875 3.69142 18.9287 3.74611 21.2051 4.75099L22.5244 2.32424C22.6953 2.03029 23.1738 2.24904 22.9824 2.584L21.6768 4.99025C24.2539 6.31642 26.0039 8.85939 26.0039 11.7852ZM14.335 7.99123C14.335 7.60158 14.0205 7.27346 13.6172 7.27346C13.2275 7.27346 12.9199 7.60158 12.9199 7.99123C12.9199 8.38088 13.2344 8.709 13.6172 8.709C14.0205 8.709 14.335 8.38088 14.335 7.99123ZM22.0869 7.99123C22.0869 7.60158 21.7725 7.27346 21.3896 7.27346C20.9863 7.27346 20.6719 7.60158 20.6719 7.99123C20.6719 8.38088 20.9863 8.709 21.3896 8.709C21.7725 8.709 22.0869 8.38088 22.0869 7.99123ZM28.5674 12.0996C27.5352 12.0996 26.6875 12.9268 26.6875 13.9795V21.8955C26.6875 22.9483 27.5352 23.7891 28.5674 23.7891C29.6201 23.7891 30.625 22.9414 30.625 21.8955V13.9795C30.625 12.9268 29.6133 12.0996 28.5674 12.0996Z" fill="black"/>
</svg>
